<svg id="Layer_1" data-name="Layer 1" xmlns="http://www.w3.org/2000/svg" xmlns:xlink="http://www.w3.org/1999/xlink" viewBox="0 0 1500 548"><defs><style>.cls-1{fill:#030d2b;}.cls-2{fill:#fff;}.cls-3{fill:url(#radial-gradient);}</style><radialGradient id="radial-gradient" cx="203.27" cy="116.25" r="374.33" gradientUnits="userSpaceOnUse"><stop offset="0.15" stop-color="#00f0cd"/><stop offset="0.85" stop-color="#9700ba"/></radialGradient></defs><rect class="cls-1" x="-1" y="-3" width="1502" height="554"/><path class="cls-2" d="M682.45,285.9c34.54-9.71,47.95-39.87,47.95-68,0-36.19-21.8-67.72-72.73-67.72H535v39.55H659c21.78,0,31.5,13.75,31.5,29.85s-9,31.5-31.5,31.5H570.84c-24.81,0-35.52,10.39-35.52,35.87v89.51h39.55V294.61c0-4,2-5.68,5.7-5.68h59l51.62,87.49h43.92Z"/><path class="cls-2" d="M809.52,332.16V320.78c0-12.74,3-21.13,18.76-24.81l94.2-21.13c36.54-8.37,52.61-27.14,52.61-60.66,0-41.57-24.46-64-68-64H777.33v39.55H908.07c18.09,0,27.82,10.07,27.82,25.16,0,10.71-5,18.44-21.13,22.12l-95.2,21.79c-38.53,8.72-49.62,28.15-49.62,65V358c0,12.39,6,18.44,18.79,18.44H969.07V336.85H813.86C810.85,336.85,809.52,335.86,809.52,332.16Z"/><path class="cls-2" d="M1307,188c-9-25.83-23.46-41.92-53.62-41.92-33.53,0-49.95,19.77-49.95,49.27V329.15c0,7.7-5,12.73-11.75,12.73-6,0-10.39-3.67-12.73-9.38l-55-144.46c-8.37-25.83-22.79-41.92-53-41.92-33.84,0-50.28,19.77-50.28,49.27v181h39.57v-179c0-8,4.69-13.09,11.73-13.09,5.7,0,10,4,12.39,9.73l55,144.47c8.71,25.82,23.45,41.89,53.3,41.89,33.18,0,50.28-19.77,50.28-49.59V197.42c0-8,4.69-13.09,11.38-13.09,6,0,10.4,4,12.74,9.73l67.4,182.36H1377Z"/><path class="cls-2" d="M535.32,411.44v4.74h10v25.47h5.61V416.18h10v-4.74Z"/><path class="cls-2" d="M614.37,424a10.68,10.68,0,0,0-4.14-4.16,12.09,12.09,0,0,0-6-1.5,12.25,12.25,0,0,0-6.16,1.54,11,11,0,0,0-4.21,4.19,12.8,12.8,0,0,0,0,12.21,11,11,0,0,0,4.46,4.18,15.44,15.44,0,0,0,12.08.58,10.09,10.09,0,0,0,4-2.76l-2.94-3.36a8.5,8.5,0,0,1-2.76,1.91,9.49,9.49,0,0,1-3.5.64,8.67,8.67,0,0,1-4-.89,6.22,6.22,0,0,1-2.66-2.49,6.33,6.33,0,0,1-.79-2.18H615.8c0-.23,0-.51.07-.81s0-.55,0-.76A12.71,12.71,0,0,0,614.37,424Zm-16.69,4.32a7.19,7.19,0,0,1,.73-2.34,5.61,5.61,0,0,1,2.35-2.4,7.17,7.17,0,0,1,3.47-.82,7,7,0,0,1,3.45.82,5.91,5.91,0,0,1,2.3,2.4,6.26,6.26,0,0,1,.76,2.34Z"/><path class="cls-2" d="M668.91,420.71c-1.82-1.61-4.39-2.42-7.77-2.42a18.83,18.83,0,0,0-5.29.74,13.61,13.61,0,0,0-4.46,2.16l2.12,3.93a9.42,9.42,0,0,1,3.19-1.68,11.89,11.89,0,0,1,3.75-.62,6.2,6.2,0,0,1,4.39,1.34,4.67,4.67,0,0,1,1.45,3.67V436l.25.94v4.71h5.11V428.13C671.65,424.8,670.73,422.32,668.91,420.71Zm-2.62,13.72a5.29,5.29,0,0,1-2.32,2.69,7,7,0,0,1-3.54.9,5.45,5.45,0,0,1-3.25-.87,2.71,2.71,0,0,1-1.17-2.28,2.89,2.89,0,0,1,1-2.23c.66-.57,1.88-.87,3.7-.87H667v-3.59h-6.69a14.55,14.55,0,0,0-5.61.9,6.37,6.37,0,0,0-3,2.46,6.66,6.66,0,0,0-.94,3.49,6.35,6.35,0,0,0,1.06,3.57,6.91,6.91,0,0,0,3,2.46,10.83,10.83,0,0,0,4.53.89,10.38,10.38,0,0,0,5.08-1.12,6.06,6.06,0,0,0,2.16-2,4.84,4.84,0,0,0,.6-1.15Z"/><path class="cls-2" d="M747.8,422.71a7.67,7.67,0,0,0-3.33-3.34,10.87,10.87,0,0,0-4.9-1.08,11,11,0,0,0-6,1.61,9.3,9.3,0,0,0-2.6,2.32,6.77,6.77,0,0,0-2.16-2.32,9.65,9.65,0,0,0-5.61-1.61,10.63,10.63,0,0,0-5.11,1.22,7.86,7.86,0,0,0-2.43,2v-2.94h-5.13v23.06h5.33V430a8.63,8.63,0,0,1,.76-3.82,5.38,5.38,0,0,1,2.12-2.32,6.31,6.31,0,0,1,3.13-.76,5,5,0,0,1,3.86,1.5,6.62,6.62,0,0,1,1.35,4.57v12.53h5.36V430a8.63,8.63,0,0,1,.76-3.82,5.26,5.26,0,0,1,2.12-2.32,6.22,6.22,0,0,1,3.12-.76,5,5,0,0,1,3.87,1.5,6.78,6.78,0,0,1,1.35,4.57v12.53H749V428.43A11.92,11.92,0,0,0,747.8,422.71Z"/><path class="cls-2" d="M871,411.44l-7.75,23.11-7.61-23.11h-5.19l-7.8,23-7.52-23h-5.81l10,30.21h6l7.54-22.35,7.47,22.35h6l10-30.21Z"/><path class="cls-2" d="M930.78,424a10.68,10.68,0,0,0-4.14-4.16,11.93,11.93,0,0,0-6-1.5,12.12,12.12,0,0,0-6.14,1.54,11,11,0,0,0-4.23,4.19,11.86,11.86,0,0,0-1.54,6.09,11.65,11.65,0,0,0,1.59,6.12,10.93,10.93,0,0,0,4.44,4.18,15.46,15.46,0,0,0,12.09.58,9.88,9.88,0,0,0,3.93-2.76l-2.92-3.36a8.18,8.18,0,0,1-2.78,1.91,9.32,9.32,0,0,1-3.49.64,8.61,8.61,0,0,1-4-.89,6.25,6.25,0,0,1-2.67-2.49,6.76,6.76,0,0,1-.78-2.18h18.07c0-.23,0-.51.07-.81s0-.55,0-.76A12.61,12.61,0,0,0,930.78,424Zm-16.69,4.32a7.21,7.21,0,0,1,.74-2.34,5.88,5.88,0,0,1,2.34-2.4,7.2,7.2,0,0,1,3.47-.82,6.83,6.83,0,0,1,3.45.82,6.09,6.09,0,0,1,2.32,2.4,6,6,0,0,1,.74,2.34Z"/><path class="cls-2" d="M969.46,418.59v23.06h5.36V418.59Zm5.15-9.38a3.47,3.47,0,0,0-2.48-.87,3.33,3.33,0,0,0-2.49.94,3,3,0,0,0-1,2.25,3.14,3.14,0,0,0,1,2.32,3.42,3.42,0,0,0,2.49.95,3.31,3.31,0,0,0,2.5-1,3.13,3.13,0,0,0,.94-2.34A3,3,0,0,0,974.61,409.21Z"/><path class="cls-2" d="M1035.24,422.71a8,8,0,0,0-3.4-3.34,11,11,0,0,0-4.94-1.08,11.4,11.4,0,0,0-5.34,1.22,7.9,7.9,0,0,0-2.55,2.07v-3h-5.15v23.06h5.36V430a8.05,8.05,0,0,1,.8-3.87,5.42,5.42,0,0,1,2.25-2.32,7.22,7.22,0,0,1,3.38-.76,5.34,5.34,0,0,1,4,1.5,6.53,6.53,0,0,1,1.43,4.57v12.53h5.4V428.43A11.45,11.45,0,0,0,1035.24,422.71Z"/><path class="cls-2" d="M1093.09,418.59v5.66l.19,5.22-.44,5.19v4.1a7.19,7.19,0,0,1-1.77,5.28c-1.17,1.15-3,1.75-5.52,1.75a14.36,14.36,0,0,1-4.76-.78,12.58,12.58,0,0,1-3.79-2l-2.42,4a13.13,13.13,0,0,0,5,2.48,22.23,22.23,0,0,0,6.24.85q6,0,9.24-3c2.11-2,3.17-5,3.17-9.2V418.59Zm1,4.53a8.11,8.11,0,0,0-1-1.47,7.86,7.86,0,0,0-2.69-2.16,11.31,11.31,0,0,0-5.28-1.2,12.65,12.65,0,0,0-6,1.38,10.44,10.44,0,0,0-4.16,3.91,11,11,0,0,0-1.54,5.89,10.66,10.66,0,0,0,5.7,9.75,12.66,12.66,0,0,0,6,1.4,11.44,11.44,0,0,0,5.28-1.22,7.9,7.9,0,0,0,2.44-1.91,8.21,8.21,0,0,0,1.29-1.77,12.63,12.63,0,0,0,1.38-6.25A13,13,0,0,0,1094.13,423.12Zm-2.09,9.75a6.19,6.19,0,0,1-2.49,2.32,7.72,7.72,0,0,1-3.61.85,8,8,0,0,1-3.65-.85,6.12,6.12,0,0,1-2.51-2.32,7.18,7.18,0,0,1,0-6.85,6.17,6.17,0,0,1,2.51-2.28,7.94,7.94,0,0,1,3.65-.83,7.72,7.72,0,0,1,3.61.83A6.24,6.24,0,0,1,1092,426a7,7,0,0,1,0,6.85Z"/><path class="cls-2" d="M1153.82,420.71q-2.73-2.41-7.77-2.42a19.08,19.08,0,0,0-5.31.74,13.51,13.51,0,0,0-4.44,2.16l2.11,3.93a9.56,9.56,0,0,1,3.2-1.68,11.75,11.75,0,0,1,3.75-.62,6.18,6.18,0,0,1,4.37,1.34,4.7,4.7,0,0,1,1.45,3.67V436l.27.94v4.71h5.08V428.13C1156.53,424.8,1155.64,422.32,1153.82,420.71Zm-2.64,13.72a5.35,5.35,0,0,1-2.3,2.69,7.07,7.07,0,0,1-3.57.9,5.4,5.4,0,0,1-3.24-.87,2.74,2.74,0,0,1-1.15-2.28,2.89,2.89,0,0,1,1-2.23c.64-.57,1.88-.87,3.68-.87h6.3v-3.59h-6.7a14.66,14.66,0,0,0-5.61.9,6.34,6.34,0,0,0-3,2.46,6.64,6.64,0,0,0-.92,3.49,6.13,6.13,0,0,0,1.06,3.57,6.85,6.85,0,0,0,3,2.46,10.86,10.86,0,0,0,4.53.89,10.52,10.52,0,0,0,5.1-1.12,6.23,6.23,0,0,0,2.76-3.15Z"/><path class="cls-2" d="M1203.19,419.53a6.83,6.83,0,0,0-2.62,2.4v-3.34h-5.15v23.06h5.35V430.5c0-2.41.6-4.21,1.82-5.38a6.67,6.67,0,0,1,4.92-1.77c.16,0,.34,0,.55,0a2.82,2.82,0,0,1,.6.07v-5.15A11.25,11.25,0,0,0,1203.19,419.53Z"/><path class="cls-2" d="M1258.39,436.55a4.49,4.49,0,0,1-2.94.94,3.18,3.18,0,0,1-2.41-.9,3.49,3.49,0,0,1-.88-2.55V413.51h-5.33v20.72a7.52,7.52,0,0,0,2.07,5.74,8.13,8.13,0,0,0,5.86,2,10.76,10.76,0,0,0,2.81-.39,6.38,6.38,0,0,0,2.36-1.17ZM1243,418.77v4.33h15.38v-4.33Z"/><path class="cls-2" d="M1315.69,424a10.68,10.68,0,0,0-4.14-4.16,11.93,11.93,0,0,0-6-1.5,12.12,12.12,0,0,0-6.14,1.54,11,11,0,0,0-4.23,4.19,12.76,12.76,0,0,0,0,12.21,11.11,11.11,0,0,0,4.46,4.18,15.41,15.41,0,0,0,12.07.58,9.81,9.81,0,0,0,4-2.76l-2.94-3.36a8.3,8.3,0,0,1-2.76,1.91,9.32,9.32,0,0,1-3.49.64,8.64,8.64,0,0,1-4-.89,6.25,6.25,0,0,1-2.67-2.49,6.32,6.32,0,0,1-.78-2.18h18.07c0-.23.05-.51.07-.81s0-.55,0-.76A12.61,12.61,0,0,0,1315.69,424ZM1299,428.27a7.21,7.21,0,0,1,.74-2.34,5.76,5.76,0,0,1,2.34-2.4,7.2,7.2,0,0,1,3.47-.82,6.83,6.83,0,0,1,3.45.82,6.09,6.09,0,0,1,2.32,2.4,6,6,0,0,1,.74,2.34Z"/><path class="cls-2" d="M1375.75,422.71a8.14,8.14,0,0,0-3.42-3.34,10.93,10.93,0,0,0-4.95-1.08,11.36,11.36,0,0,0-5.31,1.22,7.88,7.88,0,0,0-2.57,2.07v-3h-5.13v23.06h5.33V430a8.29,8.29,0,0,1,.81-3.87,5.36,5.36,0,0,1,2.27-2.32,7.14,7.14,0,0,1,3.36-.76,5.34,5.34,0,0,1,4,1.5,6.44,6.44,0,0,1,1.42,4.57v12.53H1377V428.43A11.45,11.45,0,0,0,1375.75,422.71Z"/><path class="cls-3" d="M427,272.58a68,68,0,0,1,31.65-57.48l-17-29.62-17.37-30.23A68,68,0,0,1,325.2,98H256.58a67.91,67.91,0,0,1-99.23,57.25L123,215.07a68,68,0,0,1,0,115.07L140.7,361l16.66,29a68.08,68.08,0,0,1,99.22,57.64H325.2A68.07,68.07,0,0,1,424.29,390l34.38-59.88A68,68,0,0,1,427,272.58ZM177.45,314.69l-.7-2a130.54,130.54,0,0,1-7.19-41.74c0-25.38,8.39-49.36,24.56-72.05,8.71-12.18,22.37-23.69,36.81-32.19s29.7-14,41.76-14a33.51,33.51,0,0,1,3.79.19l2,.23-1.29,1.57c-4.06,4.91-7.56,9.93-11.91,14.26-10.65,10.52-21.68,20.66-32.43,31a41.81,41.81,0,0,0-5.27,6.5,7.42,7.42,0,0,0-1.39,4.14,7.21,7.21,0,0,0,1.65,4.42,9.54,9.54,0,0,0,2.83,2.57,6.49,6.49,0,0,0,3.25.89,7.53,7.53,0,0,0,2.55-.48,83.35,83.35,0,0,0,11-5.48,179.22,179.22,0,0,0,56-49.3c1.86-2.49,3.39-5.27,5.09-8a6.41,6.41,0,0,1,2.18-2.29,5,5,0,0,1,2.92-.83,7.42,7.42,0,0,1,1.83.24c5.14,1.38,10.36,2.62,15.46,4.37a20.86,20.86,0,0,1,5.3,2.44,7.61,7.61,0,0,1,3,3.42,7.51,7.51,0,0,1,.57,3,21.31,21.31,0,0,1-1.6,7c-5.56,14.9-15.48,26.42-27.44,36.33a335,335,0,0,1-60.48,39.93c-23,11.87-43.5,27-59.56,47.47-4.08,5.22-7.76,10.84-12,16.82Zm14.22,27.21-.45-.7c-2-3.1-4.05-6.17-5.77-9.14a3.55,3.55,0,0,1,.24-3.9h0c4.12-5.69,9.55-12.93,13.1-17.45,16-20.43,36.39-35.49,59.39-47.33a336.07,336.07,0,0,0,60.57-40c6-5,14-13.4,21.19-22.93,6.3-8.39,11.92-17.6,15-26.1a3,3,0,0,1,4-1.76,46,46,0,0,1,4.69,2.33,27,27,0,0,1,9.19,8,3.05,3.05,0,0,1,.31,2.81c-8.34,20.71-23.93,40.38-41.61,53.61-16.68,12.51-35.11,22.28-53.52,32.29-22.83,12.46-45.45,25.43-64.84,43.43a135.68,135.68,0,0,0-20.25,24.82C192.49,340.56,192.07,341.24,191.67,341.9ZM411.1,260.25a12.85,12.85,0,0,1-2.76,3.57c-20.85,19.57-44.15,35.69-69.1,49.45-19,10.45-37.63,21.36-54.29,35.24-2.57,2.15-5,4.49-7.42,6.9a4.29,4.29,0,0,0-1.45,3s.13,7.6,9,1c21.42-16.9,46-27,72.08-33.9,0,0,37.13-10.6,49.69-18.4l-.63,2.05c-10.15,33.37-32,55.81-61.68,71a120.8,120.8,0,0,1-55,13.41c-16.39,0-31.33-3.47-42.92-9.18l-1-.45.42-1a131.12,131.12,0,0,1,19.73-31.65c10.44-12.51,22.75-22.82,36.15-31.92,3.45-2.37,6.75-5,10-7.78a6.48,6.48,0,0,0,1.54-1.75,3.57,3.57,0,0,0,.55-1.83,4.19,4.19,0,0,0-.65-2.13,5.28,5.28,0,0,0-1.78-1.9,4.22,4.22,0,0,0-2.27-.67,5.41,5.41,0,0,0-2.3.54,134.26,134.26,0,0,0-14.54,7.8c-15.51,9.81-30.07,20.8-42.24,34.61a123.33,123.33,0,0,0-19.62,30l-.48,1.08-1.05-.6a108.13,108.13,0,0,1-26.32-20.8,3.81,3.81,0,0,1-.76-1.16,2.63,2.63,0,0,1-.28-1.2,3.7,3.7,0,0,1,.49-1.69c.24-.47.5-.86.69-1.2a115.26,115.26,0,0,1,21.51-26.55c19.32-17.95,41.91-30.91,64.75-43.35,18.38-10,36.87-19.79,53.59-32.33,18.22-13.64,32.53-30.2,40.72-51.65a7.45,7.45,0,0,1,.41-.74c.13-.26.29-.5.52-.89l.8-1.45,1,1.32c1.62,2.15,3.14,4,4.54,6A114.17,114.17,0,0,1,412,254.4a12.38,12.38,0,0,1,.1,1.57A9.65,9.65,0,0,1,411.1,260.25Z"/></svg>